<?xml version="1.0" standalone="no"?>
<!DOCTYPE svg PUBLIC "-//W3C//DTD SVG 20010904//EN"
 "http://www.w3.org/TR/2001/REC-SVG-20010904/DTD/svg10.dtd">
<svg version="1.0" xmlns="http://www.w3.org/2000/svg"
 width="3000.000000pt" height="3000.000000pt" viewBox="0 0 3000.000000 3000.000000"
 preserveAspectRatio="xMidYMid meet">
<metadata>
Created by potrace 1.11, written by Peter Selinger 2001-2013
</metadata>
<g transform="translate(0.000000,3000.000000) scale(0.100000,-0.100000)"
fill="#000000" stroke="none">
<path d="M8732 22405 c-114 -29 -157 -49 -247 -117 -69 -52 -148 -146 -187
-222 -27 -52 -78 -257 -78 -311 0 -54 51 -259 78 -311 61 -118 184 -238 305
-297 70 -33 220 -67 298 -67 61 0 200 27 264 52 46 17 186 112 221 150 62 66
124 169 146 244 l22 74 2951 0 2952 0 1399 -966 c769 -531 1399 -966 1400
-967 2 -1 -8 -47 -22 -102 -13 -55 -24 -119 -24 -141 0 -54 52 -258 78 -310
61 -118 184 -238 305 -297 69 -33 219 -67 297 -67 78 0 228 34 297 67 121 59
244 179 305 297 27 52 78 257 78 311 0 54 -51 259 -78 311 -58 113 -186 240
-298 294 -63 31 -231 70 -301 70 -62 0 -191 -26 -271 -54 -24 -9 -77 -39 -118
-68 -69 -47 -78 -51 -97 -38 -12 7 -660 453 -1439 992 -780 538 -1421 977
-1425 977 -5 -1 -1354 -1 -2998 0 l-2991 1 -22 74 c-22 75 -84 179 -145 244
-44 46 -168 130 -219 148 -84 30 -210 54 -276 53 -37 0 -109 -11 -160 -24z"/>
<path d="M12168 20802 l-2878 -2 0 -154 c0 -151 0 -154 22 -158 13 -3 286
-192 607 -421 l584 -417 946 0 946 0 18 -84 c37 -179 86 -284 181 -384 35 -38
175 -133 221 -150 64 -25 203 -52 264 -52 78 0 228 34 298 67 121 59 244 179
305 297 27 52 78 257 78 311 0 54 -51 259 -78 311 -58 113 -186 240 -298 294
-63 31 -231 70 -301 70 -62 0 -191 -26 -271 -54 -58 -21 -185 -110 -230 -162
-20 -23 -53 -67 -72 -97 l-35 -56 -938 -1 -938 0 -367 261 c-202 144 -369 264
-371 265 -2 2 1148 4 2555 4 l2560 0 869 -526 c479 -289 872 -528 874 -530 2
-2 -304 -4 -680 -4 l-685 0 -22 74 c-22 75 -84 179 -145 244 -44 46 -168 130
-219 148 -80 28 -209 54 -271 54 -70 0 -238 -39 -301 -70 -112 -54 -240 -181
-298 -294 -27 -52 -78 -257 -78 -311 0 -54 51 -259 78 -311 61 -118 184 -238
305 -297 70 -33 220 -67 298 -67 61 0 200 27 264 52 46 17 186 112 221 150 62
66 124 169 146 244 l22 74 993 0 993 0 0 153 c0 148 -1 152 -23 163 -12 6
-526 315 -1142 688 -616 373 -1122 679 -1125 680 -3 0 -1300 0 -2882 -2z"/>
<path d="M6870 19295 c0 -129 2 -155 15 -155 8 0 448 -297 979 -661 961 -658
965 -661 955 -687 -21 -54 -59 -228 -59 -268 0 -54 52 -258 78 -310 61 -118
184 -238 305 -297 69 -33 219 -67 297 -67 78 0 228 34 297 67 121 59 244 179
305 297 27 52 78 257 78 311 0 54 -51 259 -78 311 -58 113 -186 240 -298 294
-63 31 -231 70 -301 70 -114 0 -269 -44 -359 -102 l-62 -39 -785 538 -786 538
2093 3 2093 2 1774 -1083 c976 -596 1783 -1089 1794 -1095 15 -9 -228 -11
-1006 -12 l-1026 0 -779 492 c-428 270 -781 493 -783 495 -2 2 5 45 17 97 12
52 22 113 22 134 0 52 -52 257 -78 308 -58 113 -186 240 -298 294 -64 32 -232
70 -304 70 -72 0 -240 -38 -304 -70 -112 -54 -240 -181 -298 -294 -27 -52 -78
-257 -78 -311 0 -54 51 -259 78 -311 61 -118 184 -238 305 -297 69 -33 219
-67 297 -67 72 0 225 33 289 63 24 11 76 44 116 72 l72 52 819 -518 819 -518
1393 -1 1392 0 0 154 0 154 -32 4 c-22 2 -743 437 -2053 1237 -1111 678 -2025
1239 -2031 1247 -10 12 -368 14 -2448 14 l-2436 0 0 -155z"/>
<path d="M20672 18855 c-114 -29 -157 -49 -247 -117 -69 -52 -148 -146 -187
-222 -27 -52 -78 -257 -78 -311 0 -54 51 -259 78 -311 61 -118 184 -238 305
-297 69 -33 219 -67 297 -67 82 0 230 35 303 71 l58 29 555 -511 556 -512 -78
-77 c-294 -290 -5503 -5274 -5516 -5278 -17 -4 -18 -107 -18 -1978 l0 -1974
-747 -695 -748 -694 -4000 -1 -4001 0 -22 74 c-22 75 -84 179 -145 244 -44 46
-168 130 -219 148 -80 28 -209 54 -271 54 -70 0 -238 -39 -301 -70 -112 -54
-240 -181 -298 -294 -27 -52 -78 -257 -78 -311 0 -54 51 -259 78 -311 61 -118
184 -238 305 -297 70 -33 220 -67 298 -67 61 0 200 27 264 52 46 17 186 112
221 150 62 66 124 169 146 244 l22 74 4061 0 4060 1 837 777 837 777 1 1960 0
1960 2870 2750 c2673 2562 2869 2752 2867 2781 -2 27 -78 100 -647 624 -355
326 -651 598 -658 605 -11 10 -10 20 8 56 28 55 80 258 80 314 0 54 -51 259
-78 311 -58 113 -186 240 -298 294 -68 33 -232 70 -309 69 -39 0 -112 -11
-163 -24z"/>
<path d="M19155 17110 l-710 -710 113 -113 114 -114 -1971 -1879 -1970 -1879
0 -1862 -1 -1862 -372 -341 -373 -340 -2427 0 -2426 0 -21 70 c-21 70 -86 176
-144 238 -44 46 -168 130 -219 148 -80 28 -209 54 -271 54 -70 0 -238 -39
-301 -70 -112 -54 -240 -181 -298 -294 -27 -52 -78 -257 -78 -311 0 -54 51
-259 78 -311 61 -118 184 -238 305 -297 69 -33 219 -67 297 -67 78 0 228 34
297 67 167 81 308 249 344 411 l12 52 2486 0 2486 1 462 422 462 422 1 1885 0
1885 1865 1780 c1026 979 1890 1802 1921 1829 l55 50 249 -249 c138 -138 249
-252 248 -256 -2 -3 -832 -807 -1845 -1788 l-1843 -1782 0 -1952 0 -1952 -237
-215 c-129 -118 -262 -239 -294 -268 l-58 -53 -61 41 c-33 23 -79 48 -103 56
-79 28 -208 54 -270 54 -70 0 -238 -39 -301 -70 -112 -54 -240 -181 -298 -294
-27 -52 -78 -257 -78 -311 0 -54 51 -259 78 -311 61 -118 184 -238 305 -297
69 -33 219 -67 297 -67 78 0 228 34 297 67 121 59 244 179 305 297 27 52 78
257 78 311 0 23 -14 98 -31 165 -25 102 -28 125 -17 135 7 6 165 150 351 319
l337 308 0 1942 0 1943 1776 1719 c977 945 1791 1732 1811 1748 l35 29 131
-131 132 -132 710 710 710 710 -710 710 -710 710 -710 -710z m1203 -218 l493
-487 -489 -495 -489 -495 -419 412 c-230 226 -454 447 -496 490 l-77 78 486
493 c267 270 488 492 492 492 3 0 228 -220 499 -488z"/>
<path d="M6500 16560 l0 -230 -550 0 -550 0 0 -155 c0 -118 3 -155 13 -155 16
0 1177 -1161 1177 -1178 0 -9 303 -12 1473 -12 l1473 0 22 -74 c22 -75 84
-178 146 -244 35 -38 175 -133 221 -150 64 -25 203 -52 264 -52 78 0 228 34
298 67 121 59 244 179 305 297 27 52 78 257 78 311 0 54 -51 259 -78 311 -58
113 -186 240 -298 294 -63 31 -231 70 -301 70 -62 0 -191 -26 -271 -54 -51
-18 -175 -102 -219 -148 -61 -65 -123 -169 -145 -244 l-22 -74 -1396 0 -1395
0 -440 440 -440 440 318 0 317 0 0 -225 0 -225 1637 0 1636 0 -6 225 -7 225
233 0 232 0 812 -547 c798 -538 811 -547 801 -572 -20 -54 -58 -228 -58 -267
0 -54 52 -258 78 -310 61 -118 184 -238 305 -297 69 -33 219 -67 297 -67 78 0
228 34 297 67 121 59 244 179 305 297 27 52 78 257 78 311 0 54 -51 259 -78
311 -58 113 -186 240 -298 294 -63 31 -231 70 -301 70 -114 0 -269 -44 -360
-102 -41 -26 -67 -37 -76 -31 -7 4 -396 266 -864 581 l-851 574 -276 -2 -276
-1 0 231 0 230 -1630 0 -1630 0 0 -230z m1010 -380 l0 -310 -350 0 -350 0 0
310 0 310 350 0 350 0 0 -310z m920 0 l0 -310 -305 0 -305 0 0 310 0 310 305
0 305 0 0 -310z m1020 0 l0 -310 -355 0 -355 0 0 310 0 310 355 0 355 0 0
-310z"/>
<path d="M23603 15677 l-131 -62 -2501 -2340 -2500 -2340 -1 -1557 0 -1556
-72 -22 c-72 -21 -173 -80 -242 -140 -44 -39 -121 -146 -146 -204 -26 -59 -70
-242 -70 -292 0 -54 52 -258 78 -310 61 -118 184 -238 305 -297 69 -33 219
-67 297 -67 78 0 228 34 297 67 121 59 244 179 305 297 26 52 78 256 78 310 0
50 -44 233 -70 292 -25 58 -102 165 -146 204 -69 60 -170 119 -241 140 l-73
22 1 1486 0 1487 2411 2255 c1325 1240 2413 2256 2417 2258 4 1 446 -964 982
-2145 l975 -2148 -583 -3 -583 -2 0 -1559 0 -1559 -72 -22 c-72 -21 -173 -80
-242 -140 -44 -39 -121 -146 -146 -204 -26 -59 -70 -242 -70 -292 0 -54 52
-258 78 -310 61 -118 184 -238 305 -297 69 -33 219 -67 297 -67 78 0 228 34
297 67 121 59 244 179 305 297 26 52 78 256 78 310 0 50 -44 233 -70 292 -25
58 -102 165 -146 204 -69 60 -170 119 -241 140 l-73 22 0 1404 0 1404 610 0
610 0 0 150 c0 94 -4 155 -11 163 -6 7 -491 1072 -1079 2367 -587 1295 -1072
2355 -1076 2356 -5 1 -68 -25 -141 -59z"/>
<path d="M23395 14197 c-71 -34 -132 -65 -133 -70 -2 -4 -711 -672 -1575
-1484 -865 -812 -1593 -1496 -1619 -1521 l-46 -44 -64 20 c-101 34 -195 52
-261 52 -70 0 -238 -39 -301 -70 -112 -54 -240 -181 -298 -294 -27 -52 -78
-257 -78 -311 0 -54 51 -259 78 -311 61 -118 184 -238 305 -297 69 -33 219
-67 297 -67 78 0 228 34 297 67 121 59 244 179 305 297 26 52 78 256 78 310 0
51 -44 234 -70 293 -11 24 -29 57 -40 73 l-20 29 1570 1475 c863 812 1574
1476 1578 1476 5 0 209 -422 454 -937 l444 -938 -423 -3 -423 -2 0 -2235 0
-2235 -860 0 -860 0 0 385 0 385 505 0 505 0 0 1955 0 1955 -150 0 c-115 0
-150 -3 -150 -13 0 -13 -1174 -1110 -1217 -1137 l-23 -15 0 -256 0 -257 -72
-22 c-72 -21 -173 -80 -242 -140 -44 -39 -121 -146 -146 -204 -26 -59 -70
-242 -70 -292 0 -54 52 -258 78 -310 61 -118 184 -238 305 -297 69 -33 219
-67 297 -67 78 0 228 34 297 67 121 59 244 179 305 297 26 52 78 256 78 310 0
50 -44 233 -70 292 -25 58 -102 165 -146 204 -69 60 -170 119 -241 140 l-73
22 0 179 0 178 428 397 c235 219 446 415 470 438 l42 40 0 -1577 0 -1577 -355
0 -355 0 0 160 0 160 -1005 0 -1005 0 0 -1000 0 -1000 1005 0 1005 0 0 145 0
145 1010 0 1010 0 0 2235 0 2235 445 0 445 0 0 155 0 155 -549 1157 c-302 636
-552 1158 -557 1160 -5 1 -67 -26 -139 -60z m-1975 -6327 l0 -700 -695 0 -695
0 0 700 0 700 695 0 695 0 0 -700z"/>
<path d="M7025 13805 c-49 -13 -103 -28 -119 -34 -41 -16 -166 -104 -203 -143
-55 -59 -123 -168 -141 -229 l-17 -59 -662 0 -663 0 0 -149 c0 -82 -2 -156 -5
-163 -4 -9 154 -171 437 -448 244 -239 570 -559 726 -712 l282 -278 2670 0
2670 0 0 149 c0 140 -1 150 -19 153 -17 3 -348 323 -1174 1136 l-278 273 -458
-1 -458 -1 -12 53 c-35 157 -178 331 -337 408 -64 32 -232 70 -304 70 -72 0
-240 -38 -304 -70 -112 -54 -240 -181 -298 -294 -27 -52 -78 -257 -78 -311 0
-54 51 -259 78 -311 61 -118 184 -238 305 -297 70 -33 220 -67 298 -67 61 0
200 27 264 52 46 17 186 112 221 150 62 66 124 169 146 244 l22 74 389 0 390
0 291 -284 c160 -157 415 -406 566 -555 l275 -270 -2365 0 -2365 0 -579 567
-579 567 443 3 c244 1 445 1 447 -1 2 -2 13 -37 24 -77 24 -89 43 -127 106
-210 52 -70 153 -152 236 -193 69 -33 219 -67 297 -67 78 0 228 34 297 67 121
59 244 179 305 297 27 52 78 257 78 311 0 54 -51 259 -78 311 -58 113 -186
240 -298 294 -68 33 -232 70 -309 69 -38 0 -110 -11 -160 -24z"/>
<path d="M5152 11355 c-114 -29 -157 -49 -247 -117 -69 -52 -148 -146 -187
-222 -27 -52 -78 -257 -78 -311 0 -54 51 -259 78 -311 61 -118 184 -238 305
-297 70 -33 220 -67 298 -67 61 0 200 27 264 52 46 17 186 112 221 150 59 62
124 168 145 238 l21 70 818 0 818 0 21 -70 c21 -70 86 -176 145 -238 35 -38
175 -133 221 -150 64 -25 203 -52 264 -52 78 0 228 34 298 67 121 59 244 179
305 297 27 52 78 257 78 311 0 54 -51 259 -78 311 -58 113 -186 240 -298 294
-64 32 -232 70 -304 70 -72 0 -240 -38 -304 -70 -158 -77 -302 -251 -337 -407
l-12 -53 -817 0 -817 0 -12 53 c-27 120 -115 251 -226 335 -91 68 -132 88
-251 117 -124 31 -210 31 -332 0z"/>
<path d="M9872 11355 c-114 -29 -157 -49 -247 -117 -69 -52 -148 -146 -187
-222 -27 -52 -78 -257 -78 -311 0 -54 51 -259 78 -311 61 -118 184 -238 305
-297 70 -33 220 -67 298 -67 62 0 202 28 264 52 17 6 47 23 69 36 l38 24 42
-39 c369 -351 724 -688 771 -734 l60 -59 -938 0 -937 0 0 250 0 250 -1630 0
-1630 0 0 -610 0 -610 1637 0 1636 0 -6 205 -6 205 1165 0 1164 0 0 153 -1
152 -524 499 c-288 274 -538 513 -555 531 l-30 31 20 46 c26 60 70 243 70 294
0 54 -52 258 -78 310 -58 113 -186 240 -298 294 -68 33 -232 70 -309 69 -39 0
-112 -11 -163 -24z m-2712 -2155 l0 -310 -350 0 -350 0 0 310 0 310 350 0 350
0 0 -310z m920 0 l0 -310 -305 0 -305 0 0 310 0 310 305 0 305 0 0 -310z
m1020 0 l0 -310 -355 0 -355 0 0 310 0 310 355 0 355 0 0 -310z"/>
<path d="M9580 6790 l0 -610 2090 0 2090 0 0 610 0 610 -2090 0 -2090 0 0
-610z m1010 0 l0 -310 -350 0 -350 0 0 310 0 310 350 0 350 0 0 -310z m920 0
l0 -310 -305 0 -305 0 0 310 0 310 305 0 305 0 0 -310z m1020 0 l0 -310 -355
0 -355 0 0 310 0 310 355 0 355 0 0 -310z m920 0 l0 -310 -305 0 -305 0 0 310
0 310 305 0 305 0 0 -310z"/>
</g>
</svg>
